<svg id="圖層_1" data-name="圖層 1" xmlns="http://www.w3.org/2000/svg" viewBox="0 0 371.88 315.84"><defs><style>.cls-1,.cls-2{fill:#b2000d;}.cls-2{fill-rule:evenodd;}.cls-3{fill:gray;}.cls-4{fill:#fb2933;}</style></defs><title>logo-red</title><path class="cls-1" d="M294.64,198.08a2.64,2.64,0,0,0-.94.18l-4-6.77a2.65,2.65,0,0,0-4.27-2.87L279,186.17c0-.06,0-.11,0-.17a2.67,2.67,0,1,0-5.33,0s0,.06,0,.09l-5.78.4a2.66,2.66,0,1,0-4.25,3.18l-4.23,4.14a2.63,2.63,0,0,0-1.12-.26,2.67,2.67,0,0,0,0,5.33,2.63,2.63,0,0,0,1.21-.3l7.82,4.58c0,.09,0,.17,0,.25a2.66,2.66,0,0,0,4.22,2.16L282,213.63a2.56,2.56,0,0,0-.09.65,2.67,2.67,0,1,0,5.33,0,2.42,2.42,0,0,0,0-.32l7-10.59a2.66,2.66,0,1,0,.42-5.29Zm-5.48-5.62,3.69,6.33a2.65,2.65,0,0,0-.88,2,2.62,2.62,0,0,0,0,.41l-4.34,2.24a2.62,2.62,0,0,0-2.83-1.09l-2.08-4a2.64,2.64,0,0,0,.53-3.66l2.29-2a2.63,2.63,0,0,0,3.58-.23Zm-16.56,11.29a2.64,2.64,0,0,0,0-.28l6.9-5.14a2.54,2.54,0,0,0,2.34.44l2.06,4a2.66,2.66,0,0,0-1.06,1.58Zm-1.49-6.3a2.66,2.66,0,0,0,2.38-1.72l5,.51a2.63,2.63,0,0,0,.38,1.35l-6.43,4.79A2.67,2.67,0,0,0,271,201Zm7.63-10.3,6.1,2.3a2.58,2.58,0,0,0,.08,2.47l-2.37,2a2.59,2.59,0,0,0-2.32-.25l-2.42-5.49A2.68,2.68,0,0,0,278.75,187.15Zm-1.86,1.47,2.48,5.62a2.66,2.66,0,0,0-.71,1l-5-.51a2.66,2.66,0,0,0-.82-1.87l2.61-4.36a2.65,2.65,0,0,0,.88.16A2.72,2.72,0,0,0,276.89,188.61Zm-3-1.54a2.68,2.68,0,0,0,.69.93L272,192.32a2.58,2.58,0,0,0-1.93,0l-2.17-2.91a2.66,2.66,0,0,0,.43-1.44,2.61,2.61,0,0,0,0-.48Zm-6.69,3,2,2.7a2.65,2.65,0,0,0-.88,2c0,.08,0,.16,0,.24l-7.57.28a2.65,2.65,0,0,0-.55-.9l4.12-4L264,190a2.63,2.63,0,0,0,3.2.11Zm.41,12.06-7.28-4.27a2.64,2.64,0,0,0,.61-1.61l7.7-.29a2.66,2.66,0,0,0,1.46,1.28l-.08,3.46H270A2.65,2.65,0,0,0,267.62,202.18Zm14.81,10.53-10.22-7.86.06-.11,10.57.58a2.66,2.66,0,0,0,2,2.18l-.57,4.15A2.65,2.65,0,0,0,282.44,212.7Zm4.35.09a2.66,2.66,0,0,0-1.5-1.07l.57-4.19a2.64,2.64,0,0,0,2.21-3.2l4.29-2.22a2.67,2.67,0,0,0,.9.91Z"/><path class="cls-1" d="M91.9,195.5s-12.83,18.93-12.83,26a12.83,12.83,0,1,0,25.66,0C104.73,214.44,91.9,195.5,91.9,195.5Zm7.63,26.07H93.72v5.81H90.09v-5.81H84.28v-3.62h5.81v-5.81h3.62v5.81h5.81Z"/><path class="cls-1" d="M276,86.37l2.73-3.42,0,0a1.23,1.23,0,0,0,1.65-.26,1.07,1.07,0,0,0,.23-.55l.52.36a2.8,2.8,0,0,0,3.72-.53l9.52-11.9a2.52,2.52,0,0,0,.36-.61l1.68,1.16a1.07,1.07,0,0,0,1.43-.22.92.92,0,0,0-.2-1.35l-3.73-2.59,1.29-1.61,1.95,1.37,1.56-2L291.18,59l-1.56,2,1.95,1.37L290.24,64l-3.76-2.61a1.07,1.07,0,0,0-1.37.19.92.92,0,0,0,.07,1.31l.08.06,1.65,1.14a2.48,2.48,0,0,0-.46.45l-9.52,11.9a2.4,2.4,0,0,0,.48,3.49l.77.55a1.17,1.17,0,0,0-.52.35,1.08,1.08,0,0,0,.21,1.56l0,0-2.73,3.42a.45.45,0,0,0,0,.6l0,0a.52.52,0,0,0,.74-.07Zm6.5-5.52-3.71-2.61a.39.39,0,0,1-.08-.59l1.14-1.43,1.66,1.17a1,1,0,0,0,1,.11,1,1,0,0,0,.6-.74.86.86,0,0,0-.38-.84L281,74.75l.89-1.12,1.66,1.17a1,1,0,0,0,1,.11,1,1,0,0,0,.59-.74.87.87,0,0,0-.38-.83l-1.66-1.17.88-1.1,1.66,1.16a1,1,0,0,0,1,.11,1,1,0,0,0,.59-.74.87.87,0,0,0-.38-.84l-1.66-1.17.89-1.11,1.66,1.17a1,1,0,0,0,1,.11,1,1,0,0,0,.59-.74.87.87,0,0,0-.38-.83L287.18,67l1-1.27a.44.44,0,0,1,.63-.09l3.71,2.61a.39.39,0,0,1,.09.6l-9.51,11.9A.46.46,0,0,1,282.47,80.84Z"/><path class="cls-1" d="M131.68,127.9a6.3,6.3,0,0,0-8.85.41l-10.17,10.91a6.2,6.2,0,0,0,.27,8.8,6.3,6.3,0,0,0,8.85-.38l10.17-10.91a6.24,6.24,0,0,0-.27-8.82Zm-1.49,1.6h0a4,4,0,0,1,.16,5.75l-5.12,5.49-.68-.62-6,6.4-.93-.86,5.68-6.09.95.9,6.06-6.41-1-.92-5.74,6.08-4.29-3.89,5.16-5.54a4.06,4.06,0,0,1,5.76-.29Z"/><path class="cls-2" d="M184.73,72.72a11.42,11.42,0,0,1-.27,2.36,8.23,8.23,0,0,1-.69,1.21.8.8,0,0,1-.47.3c-.18,0-.35-.15-.52-.17-.47-.05-1,.36-1.62.3-.25,0-.51-.27-.81-.32-.61-.1-1,.31-1.8.22a12.6,12.6,0,0,0-1.53-.66c-.5,0-.88.28-1.38.22a2.46,2.46,0,0,1-.81-.34c-.3-.18-.52-.56-1-.57a7.63,7.63,0,0,1-.94.12,3.94,3.94,0,0,1-.64-.17,3.54,3.54,0,0,1-1-.79c0-.67-1.49-.87-1.6-.84a11.2,11.2,0,0,1-1-.91c.15-.24.47-.15.69-.2s3.3-.86,4.92-1.45c6.32-2.28,6.38-2.94,7.06-3a3.12,3.12,0,0,1,1.11,0c.11,0,3.17,1,.2,4-.12.13.31.39.52.47C183.6,72.71,184.3,72.48,184.73,72.72Z"/><path class="cls-2" d="M186.44,72.72a11.43,11.43,0,0,0,.27,2.36,8.23,8.23,0,0,0,.69,1.21.8.8,0,0,0,.47.3c.18,0,.35-.15.52-.17.47-.05,1,.36,1.62.3.25,0,.51-.27.81-.32.61-.1,1,.31,1.79.22a12.68,12.68,0,0,1,1.53-.66c.5,0,.88.28,1.38.22a2.46,2.46,0,0,0,.81-.34c.3-.18.52-.56,1-.57a7.63,7.63,0,0,0,.94.12,4,4,0,0,0,.64-.17,3.57,3.57,0,0,0,1-.79c0-.67,1.49-.87,1.6-.84a11.46,11.46,0,0,0,1-.91c-.15-.24-.47-.15-.69-.2s-3.3-.86-4.92-1.45c-6.32-2.28-6.38-2.94-7.06-3a3.12,3.12,0,0,0-1.11,0c-.11,0-3.17,1-.2,4,.12.13-.31.39-.52.47C187.56,72.71,186.87,72.48,186.44,72.72Z"/><path class="cls-2" d="M186.41,69.42c-.12.15-.35.07-.57.07s-.79.07-1-.07a.32.32,0,0,1,.12-.32c.23.12.45,0,.64,0s.44.15.69,0c0,0,0,0,0,0A.35.35,0,0,1,186.41,69.42Z"/><path class="cls-2" d="M181.05,85.14c-.11.45.34.88.59,1.06a4.93,4.93,0,0,0,1,.42l1.56-.6s-1.54-.52-1.17-.95,4.86-2.35,5-2.38,3.47-1.52,2.83-3.25c-.15-.41-1.15-2-3.81-2a.48.48,0,0,0,0,.94c.05,0,3.14.64,2.68,1.69C188.81,81.82,181.42,83.69,181.05,85.14Z"/><path class="cls-2" d="M183.85,83.08c-.06-.15-3.61-1.63-3.78-2.8-.29-2,3.09-2.7,3.49-2.84.84-.29,1.4.45.48.93-.71.47-2.75.93-2.61,1.75s3.2,2.1,3.44,2.35Z"/><path class="cls-1" d="M185,94.84s-1.22-.79-1.08-1.15c.19-.65,2.72-1.49,2.89-1.56s1.24-.62,1.39-.73a.8.8,0,0,0,.15-1,7,7,0,0,0-.57-.64l-1.08.59s.4.15.49.34c0,.42-2.76,1.6-2.85,1.62a3.16,3.16,0,0,0-1,.76,1.31,1.31,0,0,0,.5,1.8,6.05,6.05,0,0,0,.65.38Zm-1.43,1.87c0,.62,1.29,1.41,1.29,1.41l.52-.58s-1-.29-1-.8.54-.73,2.24-1.48a5.18,5.18,0,0,0,1.15-.86c.75-.83-.94-1.88-.94-1.88l-.72.42.55.43c.18.15.39.26.42.49C187.12,94.5,183.58,95.62,183.54,96.71Zm3.94-7.18c.85-.23,1.28-.31,1.6-.89a1.38,1.38,0,0,0-1-1.72l-1.06.4s1.26.7.74,1c-.08,0-3.6,1.2-3.68,1.22s-1.39.53-1.38,1.4c0,.69,1.35,1.18,1.35,1.18l.86-.53c-.19-.11-.38-.25-.54-.33s-.51-.2-.37-.54S187.47,89.53,187.47,89.53Zm1.74-3.31a.86.86,0,0,0,.56-.94c-.06-1.12-2.56-1.92-2.56-1.92l-1.09.59a13.14,13.14,0,0,1,2.24,1.29c.34.79-5.95,1.07-6.35,2.44a1.16,1.16,0,0,0,.49,1.23,6.78,6.78,0,0,0,1,.49s1.15-.34,1.18-.49-1.34-.71-1.3-1,1-.55,1.3-.59A45.11,45.11,0,0,0,189.21,86.22Z"/><path class="cls-2" d="M184.6,99.74c0,.33.48.66.54.78s-.17.44-.42.3c0-.07-1-.66-.69-1.48.21-.59,2.59-2.12,2.59-2.57S186,96,186,96l.58-.33s.72.67.77,1C187.55,97.75,184.51,98.75,184.6,99.74Z"/><path class="cls-2" d="M186,100.41a7.11,7.11,0,0,0-1.55,1.57c-.18.3.17.53.28.38a11.06,11.06,0,0,1,2.06-2.06,1,1,0,0,0,0-1.36,7.3,7.3,0,0,0-.58-.58l-.39.39.5.44S186.93,99.71,186,100.41Z"/><path class="cls-3" d="M129.51,155.91A18.86,18.86,0,0,1,119.09,157l-16.48,36.6a24,24,0,0,1,10.15,27.47h59.79a19.23,19.23,0,0,1,2.79-9.06Z"/><path class="cls-4" d="M253.12,194.81,141.74,152.3l41.94,52.28a19.29,19.29,0,0,1,26.89,12.71l42-15.75c0-.46,0-.93,0-1.4A24,24,0,0,1,253.12,194.81Z"/><path class="cls-1" d="M305.14,73.7a19.31,19.31,0,0,1-7,14.9l1.32,19.75a19.36,19.36,0,0,1,13.28,11l37.18-2.24a19.25,19.25,0,0,1,5.28-12.78L261.74,9.1,289,54.63A19.34,19.34,0,0,1,305.14,73.7Z"/><path class="cls-1" d="M271.91,223.65a24,24,0,0,1-15.35-10.2L213.24,229.1l51.93,24.45a19.33,19.33,0,0,1,5.38-3.66Z"/><path class="cls-3" d="M353.28,128.56l-39.5,3.36a19.26,19.26,0,0,1-3.32,6.92l42.47,56a19.2,19.2,0,0,1,8.64,2.65l6.61-60.55A19.31,19.31,0,0,1,353.28,128.56Z"/><path class="cls-1" d="M29.34,141.48l75-9.24a20.32,20.32,0,0,1,2.4-5.46l-40-59.37a19.3,19.3,0,0,1-9.85-5.2l-35,69.59A19.4,19.4,0,0,1,29.34,141.48Z"/><path class="cls-4" d="M104.68,144.76l-74.73,7.36a19.25,19.25,0,0,1-4.46,8.63l46.32,46C74.49,197,82.53,190,92,190l.55,0,15.79-38.62A19.84,19.84,0,0,1,104.68,144.76Z"/><path class="cls-3" d="M80.84,64.75,118,119.1a19.23,19.23,0,0,1,13.5,1.87l32.73-25.64a23.8,23.8,0,0,1-2.41-9.58L86.43,59.36A19.43,19.43,0,0,1,80.84,64.75Z"/><path class="cls-4" d="M216.59,4.21,87.69,39.64a19.22,19.22,0,0,1,2,6.47l74.94,27.52A24,24,0,0,1,193.07,62L221.7,14.05A19.28,19.28,0,0,1,216.59,4.21Z"/><path class="cls-1" d="M171.56,104.06,140,130.27a19.26,19.26,0,0,1,1.6,7.7s0,0,0,.07L258.51,184.3l.25-.28-64.65-76.76a24,24,0,0,1-22.55-3.2Z"/><path class="cls-3" d="M267.59,67.2a19.39,19.39,0,0,1,8.77-10.39l-25.84-43.9a19.31,19.31,0,0,1-14.93,7c-.54,0-1.06,0-1.58-.08L203.06,68.21a23.94,23.94,0,0,1,5.14,8.12Z"/><path class="cls-4" d="M280.44,114.51a19.39,19.39,0,0,1,7.2-5.21L286.38,93c-.2,0-.39,0-.59,0a19.34,19.34,0,0,1-18.21-12.86L209.64,87a23.91,23.91,0,0,1-.66,3.78Z"/><path class="cls-1" d="M275.7,127.18c0-.29,0-.57,0-.86L204.91,99.23a24.16,24.16,0,0,1-2.75,3.05l66.08,75.37a23.91,23.91,0,0,1,8.23-1.45c.51,0,1,0,1.53.05l7.34-32.35A19.33,19.33,0,0,1,275.7,127.18Z"/><path class="cls-3" d="M296.88,146.43l-7.56,33.5a23.94,23.94,0,0,1,11,17.81l33.25,9.8a19.36,19.36,0,0,1,6.6-8.91l-40-52.8A19.23,19.23,0,0,1,296.88,146.43Z"/><path class="cls-4" d="M298,210.55a24,24,0,0,1-13.43,12.12l-2.77,25.75a19.17,19.17,0,0,1,6.23,2.2L336.51,226a19.28,19.28,0,0,1-3.39-6.69Z"/><path class="cls-1" d="M259.51,264.38,216.24,245.1l43,55L263.87,280a19.27,19.27,0,0,1-4.63-12.55A19.47,19.47,0,0,1,259.51,264.38Z"/><path class="cls-4" d="M271.74,309.1h19l-12.31-22.28a19.28,19.28,0,0,1-2.67-.22Z"/><rect class="cls-1" x="293.29" y="129.05" width="9.94" height="3.18"/><path class="cls-1" d="M291.91,135.75v-5.9c0-.65-.35-2.61-3.06-2.68a2.86,2.86,0,0,0-3.06,2.68v5.9H281.9v3.12h26.28v-3.12Zm-3-3.48a1.47,1.47,0,1,1,1.47-1.47A1.48,1.48,0,0,1,288.88,132.27Z"/><path class="cls-2" d="M297.39,113.25v-1.76h-3.72v1.76h-1.21v1.64l.18,0a3.29,3.29,0,1,1,0,6.59l-.18,0v4h1.21v1.76h3.72V125.4h1.22V113.25Z"/><circle class="cls-1" cx="292.58" cy="118.23" r="1.7"/><path class="cls-1" d="M288.65,126.5h-2.82v-2.21a6.57,6.57,0,0,1,3.92-6.06l1.12,2.59a3.75,3.75,0,0,0-2.22,3.47Z"/><path class="cls-1" d="M290.53,268.39a5.09,5.09,0,0,0-1.5-3.27,11.24,11.24,0,0,0-1.53-1.4c1.06-.79,3.06-2.57,3.07-4.65a2.8,2.8,0,0,0,0-.29h-1.46c0,.1,0,.19,0,.29a3.68,3.68,0,0,1,0,.51H284.7a3.5,3.5,0,0,1,0-.5c0-.1,0-.2,0-.3h-1.46c0,.1,0,.2,0,.3a4.62,4.62,0,0,0,1.06,2.73,10.6,10.6,0,0,0,2,1.93h0c-1.06.8-3.06,2.58-3.07,4.65a4.61,4.61,0,0,0,1.06,2.73,10.56,10.56,0,0,0,2,1.94h0c-1.05.79-3.07,2.58-3.08,4.66,0,.07,0,.13,0,.2h1.46c0-.07,0-.13,0-.2a3.93,3.93,0,0,1,0-.5H289a3.4,3.4,0,0,1,0,.49c0,.07,0,.14,0,.21h1.46c0-.07,0-.14,0-.21a5.1,5.1,0,0,0-1.5-3.27,11.25,11.25,0,0,0-1.54-1.41C288.51,272.26,290.53,270.48,290.53,268.39Zm-5.36,2h3.34a7,7,0,0,1-.42.7l-.22.3H285.8A7.1,7.1,0,0,1,285.18,270.44Zm-.44-1.2H289a5,5,0,0,1-.35,1h-3.54A4.91,4.91,0,0,1,284.73,269.24Zm-.1-.85a3.51,3.51,0,0,1,0-.35h4.4c0,.11,0,.22,0,.34a3.53,3.53,0,0,1-.07.66H284.7A3.72,3.72,0,0,1,284.64,268.39Zm4.39-.54h-4.35c0-.07,0-.15,0-.22a4.53,4.53,0,0,1,.24-.78h3.81A4.59,4.59,0,0,1,289,267.85Zm-4-1.21a6.33,6.33,0,0,1,.56-1h2.52a6.53,6.53,0,0,1,.55,1Zm.09-5.67h3.49a6.4,6.4,0,0,1-.49.85L288,262h-2.29A6.8,6.8,0,0,1,285.13,261Zm3.9-1.19a4.62,4.62,0,0,1-.32,1H285a4.62,4.62,0,0,1-.31-1Zm-1.16,2.4a8.07,8.07,0,0,1-.79.89,1.71,1.71,0,0,1-.21.2,8,8,0,0,1-1-1.09Zm-1,2h0a8.06,8.06,0,0,1,1.12,1.25h-2.24A7.64,7.64,0,0,1,286.87,264.2ZM284.68,277V277a4.65,4.65,0,0,1,.3-.93h3.68a4.76,4.76,0,0,1,.3,1Zm.41-1.2a6.46,6.46,0,0,1,.6-1H288a6.56,6.56,0,0,1,.59,1Zm2.76-1.19h-2a7.85,7.85,0,0,1,1-1.09h0A7.9,7.9,0,0,1,287.85,274.63Zm-.8-2.25a1.56,1.56,0,0,1-.21.2l0,0,0,0a7.81,7.81,0,0,1-.88-.94h1.76A7.81,7.81,0,0,1,287,272.39Z"/><polygon class="cls-1" points="281.19 279.32 281.19 257.02 285.3 257.02 285.3 256.02 280.19 256.02 280.19 271.26 278.34 271.26 278.34 272.26 280.19 272.26 280.19 280.32 285.41 280.32 285.41 279.32 281.19 279.32"/><path class="cls-1" d="M272.79,272.78h3.42q-.17-.66-.38-1.28h-3.26Q272.69,272.1,272.79,272.78Z"/><path class="cls-1" d="M275.22,256.42c-1.17-.24-2,.87-2.16,1.84,0,.08,0,.17,0,.25h3.75A2.47,2.47,0,0,0,275.22,256.42Z"/><path class="cls-1" d="M272,258.31c-.14-1-1-2.08-2.15-1.84a2.44,2.44,0,0,0-1.57,2H272C272,258.44,272,258.37,272,258.31Z"/><path class="cls-1" d="M272.14,273.52h-3.49a21.31,21.31,0,0,0-.46,3.31h3.71A24.51,24.51,0,0,1,272.14,273.52Z"/><path class="cls-1" d="M273.06,275a16.77,16.77,0,0,1,0,1.87h3.74a20.43,20.43,0,0,0-.45-3.31H272.9C273,274,273,274.45,273.06,275Z"/><path class="cls-1" d="M272.5,271.5h-3.3c-.14.41-.26.84-.37,1.28h3.43C272.33,272.33,272.41,271.9,272.5,271.5Z"/><path class="cls-1" d="M272,258.85h-3.8c0,.07,0,.13,0,.2,0,.35,0,.71,0,1.08h3.72C271.92,259.69,272,259.27,272,258.85Z"/><path class="cls-1" d="M274.81,280.85c1.22,0,2-1.2,2-2.52,0-.25,0-.51,0-.77h-3.76C273.08,279.27,273.25,280.8,274.81,280.85Z"/><path class="cls-1" d="M276.63,262.25c.07-.46.12-.93.16-1.38h-3.68c0,.22,0,.45,0,.67,0,.5-.09,1-.13,1.51-.1.89-.23,1.72-.36,2.5,0,.15-.08.31-.12.45a37,37,0,0,1-.57-5.12h-3.69c.25,3,1.2,6.36,2.27,7.83a11.1,11.1,0,0,0-1.19,2.48h6.4a13.57,13.57,0,0,0-1.18-2.53,6.1,6.1,0,0,0,.41-.67A15,15,0,0,0,276.63,262.25Z"/><path class="cls-1" d="M273.12,260.12h3.72c0-.38,0-.76,0-1.12,0,0,0-.1,0-.15H273C273.05,259.27,273.11,259.69,273.12,260.12Z"/><path class="cls-1" d="M268.17,278.33a3.32,3.32,0,0,0,.47,1.66c1,1.53,3.1.82,3.32-1a7.3,7.3,0,0,0,0-1.38h-3.76C268.16,277.82,268.16,278.08,268.17,278.33Z"/><circle class="cls-1" cx="185.62" cy="66.97" r="1.81"/><path class="cls-2" d="M185.9,85.63a.28.28,0,0,1-.28.28h0a.28.28,0,0,1-.28-.28V84.24a.28.28,0,0,1,.28-.28h0a.28.28,0,0,1,.28.28Z"/><path class="cls-2" d="M185.9,103.24a.28.28,0,0,1-.28.28h0a.28.28,0,0,1-.28-.28V102.1a.28.28,0,0,1,.28-.28h0a.28.28,0,0,1,.28.28Z"/><path class="cls-2" d="M185.9,91.13a.28.28,0,0,1-.28.28h0a.28.28,0,0,1-.28-.28V90.6a.28.28,0,0,1,.28-.28h0a.28.28,0,0,1,.28.28Z"/><path class="cls-2" d="M185.9,96.94a.28.28,0,0,1-.28.28h0a.28.28,0,0,1-.28-.28v-.52a.28.28,0,0,1,.28-.28h0a.28.28,0,0,1,.28.28Z"/><path class="cls-2" d="M185.9,99.79a.28.28,0,0,1-.28.28h0a.28.28,0,0,1-.28-.28v-.52a.28.28,0,0,1,.28-.28h0a.28.28,0,0,1,.28.28Z"/><path class="cls-2" d="M185.9,94.22a.28.28,0,0,1-.28.28h0a.28.28,0,0,1-.28-.28v-1a.28.28,0,0,1,.28-.28h0a.28.28,0,0,1,.28.28Z"/><path class="cls-2" d="M185.9,88.61a.28.28,0,0,1-.28.28h0a.28.28,0,0,1-.28-.28v-1a.28.28,0,0,1,.28-.28h0a.28.28,0,0,1,.28.28Z"/><path class="cls-2" d="M185.87,82c-.13.27-.58.12-.59-.09s0-8.53,0-9.31c0-.48,0-1.21,0-2,0-.29,0-.59.22-.66.62-.17.49.5.47,1.06C186,71.94,185.95,81.7,185.87,82Z"/><polygon class="cls-1" points="77.84 247.44 81.95 249.97 81.95 256.69 68.2 256.69 68.2 248.71 72.07 247.92 72.07 242.5 54.93 242.5 54.93 247.83 58.68 249.83 58.68 273.35 54.93 274.83 54.93 280 73.4 280 73.4 276.08 68.2 273.29 68.2 264.12 81.64 264.04 81.64 273.37 77.45 275.19 77.45 280 95 280 95 274.95 91.52 273.29 91.52 248.63 95 247.92 95 242.5 77.84 242.5 77.84 247.44"/><polygon class="cls-1" points="122.54 273.33 112.46 273.33 112.46 263.83 125.18 265.11 125.18 257.12 112.35 258.16 112.35 248.07 122.08 248.07 125.18 253.65 129.26 253.07 129.26 242.5 98.8 242.61 98.8 246.93 103.55 248.44 103.66 272.17 98.8 274.84 98.8 280 130.18 280 130.64 268.24 126.82 268.12 122.54 273.33"/><path class="cls-1" d="M202.44,242.5c-10.19-1.94-25.82,0-25.82,0l-.58,4.32,4.52,3V273.1L176,274.49V280s6.93.47,21.77-.76c15.4-1.9,16-16.44,16-16.44S216.66,246.23,202.44,242.5Zm.12,28.52c-1,2.43-12.37,1.27-12.37,1.27v-24.2s9.48-1,12.37,4.28S203.6,268.58,202.56,271Z"/><path class="cls-1" d="M49.85,273.83l-12-32.5-9.5,1-12.83,31.5-2.33,1.67V280H28.35v-4.17L24.18,273l1.5-4.83H37.85L39.68,274l-4.17.67L35.35,280H51.71v-4.5ZM28.35,261.5l4.1-10.83L36,261.5Z"/><path class="cls-1" d="M170.37,273.83l-12-32.5-9.5,1L136,273.83l-2.33,1.67V280h15.17v-4.17L144.71,273l1.5-4.83h12.17l1.83,5.83-4.17.67-.17,5.33h16.36v-4.5Zm-21.5-12.33,4.1-10.83,3.57,10.83Z"/><path class="cls-1" d="M23.59,294.13h-1.5v-2.34H19.41v2.34H17.89v-4.57a.8.8,0,0,1,.36-.68,1.54,1.54,0,0,1,.93-.26h3.25a1.27,1.27,0,0,1,.86.26.83.83,0,0,1,.32.68Zm-1.5-3.21v-1H19.41v1Z"/><path class="cls-1" d="M26.64,294.13H25.07v-5.52h1.58Z"/><path class="cls-1" d="M30.41,292.57H28.18v-.88h2.23Z"/><path class="cls-1" d="M37.27,294.13h-1.5v-2.34H33.09v2.34H31.57v-4.57a.8.8,0,0,1,.36-.68,1.54,1.54,0,0,1,.93-.26H36.1a1.27,1.27,0,0,1,.86.26.83.83,0,0,1,.32.68Zm-1.5-3.21v-1H33.09v1Z"/><path class="cls-1" d="M44,293.32a.7.7,0,0,1-.3.58,1.38,1.38,0,0,1-.85.23H38.4v-1.29h4.18V292H39.75q-1.32,0-1.32-1V289.6q0-1,1.65-1h3.46v1.29H39.91v.91h2.85q1.25,0,1.25,1Z"/><path class="cls-1" d="M50.8,293.32a.7.7,0,0,1-.3.58,1.38,1.38,0,0,1-.85.23H45.18v-1.29h4.18V292H46.54q-1.32,0-1.32-1V289.6q0-1,1.65-1h3.46v1.29H46.69v.91h2.85q1.25,0,1.25,1Z"/><path class="cls-1" d="M53.89,294.13H52.32v-5.52h1.58Z"/><path class="cls-1" d="M61,293.32a.7.7,0,0,1-.3.58,1.38,1.38,0,0,1-.85.23H55.41v-1.29h4.18V292H56.77q-1.32,0-1.32-1V289.6q0-1,1.65-1h3.46v1.29H56.93v.91h2.85q1.25,0,1.25,1Z"/><path class="cls-1" d="M67.55,289.9h-1.9v4.22H64V289.9H62v-1.3h5.53Z"/><path class="cls-1" d="M73.59,289.91H70.18v.87h3.39v1.11H70.18v.93h3.38v1.3H68.63v-5.5h5Z"/><path class="cls-1" d="M80.85,292.59a1.7,1.7,0,0,1-.34,1.13,1.21,1.21,0,0,1-1,.41H74.95v-5.52h4.48a1.42,1.42,0,0,1,1,.39,1.37,1.37,0,0,1,.4,1Zm-1.57.26v-2.93H76.47v2.93Z"/><path class="cls-1" d="M91.55,294.13H90v-2.31H87.27v2.31H85.74v-5.52h1.53v2.09H90v-2.09h1.57Z"/><path class="cls-1" d="M98,289.91H94.55v.87h3.39v1.11H94.55v.93h3.38v1.3H93v-5.5h5Z"/><path class="cls-1" d="M106.27,294.14h-1.36V291.5a10.14,10.14,0,0,1,.16-1.44h-.51l-1.08,4.08h-1.33l-1.1-4.08h-.46a9.65,9.65,0,0,1,.17,1.44v2.64H99.4v-5.52h2.35l.68,2.93q.05.22.19,1H103a9.08,9.08,0,0,1,.2-1l.68-2.93h2.35Z"/><path class="cls-1" d="M113.28,294.13h-1.5v-2.34H109.1v2.34h-1.52v-4.57a.8.8,0,0,1,.36-.68,1.54,1.54,0,0,1,.93-.26h3.25a1.27,1.27,0,0,1,.86.26.83.83,0,0,1,.32.68Zm-1.5-3.21v-1H109.1v1Z"/><path class="cls-1" d="M119.76,289.9h-1.9v4.22h-1.64V289.9h-2v-1.3h5.53Z"/><path class="cls-1" d="M126.38,292.6a1.71,1.71,0,0,1-.34,1.13,1.18,1.18,0,0,1-1,.41h-3a1.3,1.3,0,0,1-1-.39,1.56,1.56,0,0,1-.36-1.09V290a1.38,1.38,0,0,1,.39-1.06,1.39,1.39,0,0,1,1-.35h2.74q1.49,0,1.49,1.37Zm-1.54.22v-2.91h-2.57v2.91Z"/><path class="cls-1" d="M132.27,294.13h-4.83v-5.52h1.68v4.24h3.15Z"/><path class="cls-1" d="M139,292.6a1.71,1.71,0,0,1-.34,1.13,1.18,1.18,0,0,1-1,.41h-3a1.3,1.3,0,0,1-1-.39,1.56,1.56,0,0,1-.36-1.09V290a1.38,1.38,0,0,1,.39-1.06,1.39,1.39,0,0,1,1-.35h2.74q1.49,0,1.49,1.37Zm-1.54.22v-2.91h-2.57v2.91Z"/><path class="cls-1" d="M145.95,292.8a1.17,1.17,0,0,1-1.31,1.33h-3.06a1.52,1.52,0,0,1-1-.32,1.26,1.26,0,0,1-.4-1V290q0-1.34,1.63-1.34h4.1v1.29h-4.19v2.92h2.78v-1h-.78v-1.11h2.26Z"/><path class="cls-1" d="M149,294.13h-1.58v-5.52H149Z"/><path class="cls-1" d="M155.82,289.9h-3.76v2.93h3.75v1.3h-3.69q-1.6,0-1.6-1.47v-2.56q0-1.49,1.55-1.49h3.75Z"/><path class="cls-1" d="M166.05,294.13h-1.5v-2.34h-2.68v2.34h-1.52v-4.57a.8.8,0,0,1,.36-.68,1.54,1.54,0,0,1,.93-.26h3.25a1.27,1.27,0,0,1,.86.26.83.83,0,0,1,.32.68Zm-1.5-3.21v-1h-2.68v1Z"/><path class="cls-1" d="M173.14,294.14h-1.56L169.48,291l-.34-.69-.55.24q.17,1.06.17,1.16v2.42h-1.4v-5.53h2.18l1.59,2.46s.09.17.21.41l.6-.13-.14-.45a1.38,1.38,0,0,1-.09-.48v-1.81h1.44Z"/><path class="cls-1" d="M180.15,294.13h-1.5v-2.34H176v2.34h-1.52v-4.57a.8.8,0,0,1,.36-.68,1.54,1.54,0,0,1,.93-.26H179a1.27,1.27,0,0,1,.86.26.83.83,0,0,1,.32.68Zm-1.5-3.21v-1H176v1Z"/><path class="cls-1" d="M186,294.13h-4.83v-5.52h1.68v4.24H186Z"/><path class="cls-1" d="M192.89,288.62l-2.21,3.46v2.05H189v-2.05l-2.19-3.46h1.68l1.32,2.56,1.31-2.56Z"/><path class="cls-1" d="M199.18,289.9h-1.9v4.22h-1.64V289.9h-2v-1.3h5.53Z"/><path class="cls-1" d="M202.1,294.13h-1.58v-5.52h1.58Z"/><path class="cls-1" d="M208.87,289.9h-3.76v2.93h3.75v1.3h-3.69q-1.6,0-1.6-1.47v-2.56q0-1.49,1.55-1.49h3.75Z"/><path class="cls-1" d="M57.66,307.13h-1.5v-2.34H53.47v2.34H52v-4.57a.8.8,0,0,1,.36-.68,1.54,1.54,0,0,1,.93-.26h3.25a1.27,1.27,0,0,1,.86.26.83.83,0,0,1,.32.68Zm-1.5-3.21v-1H53.47v1Z"/><path class="cls-1" d="M64.75,307.14H63.19L61.08,304l-.34-.69-.55.24q.17,1.06.17,1.16v2.42H59v-5.53h2.18l1.59,2.46s.09.17.21.41l.6-.13-.14-.45a1.38,1.38,0,0,1-.09-.48v-1.81h1.44Z"/><path class="cls-1" d="M72.09,305.59a1.7,1.7,0,0,1-.34,1.13,1.21,1.21,0,0,1-1,.41H66.19v-5.52h4.48a1.42,1.42,0,0,1,1,.39,1.37,1.37,0,0,1,.4,1Zm-1.57.26v-2.93H67.71v2.93Z"/><path class="cls-1" d="M82.79,305.59a1.7,1.7,0,0,1-.34,1.13,1.21,1.21,0,0,1-1,.41H76.89v-5.52h4.48a1.42,1.42,0,0,1,1,.39,1.37,1.37,0,0,1,.4,1Zm-1.57.26v-2.93H78.41v2.93Z"/><path class="cls-1" d="M89.11,302.91H85.7v.87h3.39v1.11H85.7v.93h3.38v1.3H84.14v-5.5h5Z"/><path class="cls-1" d="M95.63,302.9H91.86v2.93h3.75v1.3H91.93q-1.6,0-1.6-1.47v-2.56q0-1.49,1.55-1.49h3.75Z"/><path class="cls-1" d="M98.68,307.13H97.1v-5.52h1.58Z"/><path class="cls-1" d="M105.81,306.32a.7.7,0,0,1-.3.58,1.38,1.38,0,0,1-.85.23H100.2v-1.29h4.18V305h-2.82q-1.32,0-1.32-1V302.6q0-1,1.65-1h3.46v1.29h-3.64v.91h2.85q1.25,0,1.25,1Z"/><path class="cls-1" d="M108.91,307.13h-1.58v-5.52h1.58Z"/><path class="cls-1" d="M116.07,305.6a1.71,1.71,0,0,1-.34,1.13,1.18,1.18,0,0,1-1,.41h-3a1.3,1.3,0,0,1-1-.39,1.56,1.56,0,0,1-.36-1.09V303a1.38,1.38,0,0,1,.39-1.06,1.4,1.4,0,0,1,1-.35h2.74q1.49,0,1.49,1.37Zm-1.54.22v-2.91H112v2.91Z"/><path class="cls-1" d="M123.2,307.14h-1.56L119.54,304l-.34-.69-.55.24q.17,1.06.17,1.16v2.42h-1.4v-5.53h2.18l1.59,2.46s.09.17.21.41l.6-.13-.14-.45a1.38,1.38,0,0,1-.09-.48v-1.81h1.44Z"/><path class="cls-1" d="M133.61,306.32a.7.7,0,0,1-.3.58,1.38,1.38,0,0,1-.85.23H128v-1.29h4.18V305h-2.82q-1.32,0-1.32-1V302.6q0-1,1.65-1h3.46v1.29h-3.64v.91h2.85q1.25,0,1.25,1Z"/><path class="cls-1" d="M140.72,306.11a1,1,0,0,1-.32.73,1.25,1.25,0,0,1-.86.29h-3.35a1.25,1.25,0,0,1-.88-.32,1,1,0,0,1-.34-.75v-4.45h1.54v4.23h2.69v-4.23h1.52Z"/><path class="cls-1" d="M147.7,304.3a1,1,0,0,1-.28.73,1.09,1.09,0,0,1-.77.26h-3v1.85h-1.52v-5.52h4.49q1.05,0,1.05,1Zm-1.58-.11v-1.27h-2.47v1.27Z"/><path class="cls-1" d="M154.59,304.3a1,1,0,0,1-.28.73,1.09,1.09,0,0,1-.77.26h-3v1.85H149v-5.52h4.49q1.05,0,1.05,1Zm-1.58-.11v-1.27h-2.47v1.27Z"/><path class="cls-1" d="M161.49,305.6a1.71,1.71,0,0,1-.34,1.13,1.18,1.18,0,0,1-1,.41h-3a1.3,1.3,0,0,1-1-.39,1.56,1.56,0,0,1-.36-1.09V303a1.38,1.38,0,0,1,.39-1.06,1.39,1.39,0,0,1,1-.35H160q1.49,0,1.49,1.37Zm-1.54.22v-2.91h-2.57v2.91Z"/><path class="cls-1" d="M168.34,307.13h-1.49V305h-2.62v2.09h-1.48v-5.52H167q1.37,0,1.37.93v.77a.94.94,0,0,1-.14.55,1.33,1.33,0,0,1-.77.45,1,1,0,0,1,.92,1.05Zm-1.49-3.21v-1h-2.61v1Z"/><path class="cls-1" d="M174.94,302.9H173v4.22h-1.64V302.9h-2v-1.3h5.53Z"/></svg>